<!DOCTYPE svg PUBLIC "-//W3C//DTD SVG 1.1//EN" "http://www.w3.org/Graphics/SVG/1.1/DTD/svg11.dtd">
<!-- Uploaded to: SVG Repo, www.svgrepo.com, Transformed by: SVG Repo Mixer Tools -->
<svg fill="#000000" width="97px" height="97px" viewBox="0 0 24.00 24.00" id="right-alt-circle" data-name="Flat Line" xmlns="http://www.w3.org/2000/svg" class="icon flat-line" transform="rotate(0)" stroke="#000000">
<g id="SVGRepo_bgCarrier" stroke-width="0" transform="translate(4.800000000000001,4.800000000000001), scale(0.6)">
<rect x="0" y="0" width="24.00" height="24.00" rx="12" fill="#ffffff" strokewidth="0"/>
</g>
<g id="SVGRepo_tracerCarrier" stroke-linecap="round" stroke-linejoin="round" stroke="#CCCCCC" stroke-width="0.144"/>
<g id="SVGRepo_iconCarrier">
<path id="secondary" d="M21,12a9,9,0,1,0-9,9A9,9,0,0,0,21,12Zm-9,2.59V14H8a1,1,0,0,1-1-1V11a1,1,0,0,1,1-1h4V9.41a1,1,0,0,1,1.71-.7l2.58,2.58a1,1,0,0,1,0,1.42l-2.58,2.58A1,1,0,0,1,12,14.59Z" style="fill: #000000; stroke-width:1.8;"/>
<path id="primary" d="M12,14.59V14H8a1,1,0,0,1-1-1V11a1,1,0,0,1,1-1h4V9.41a1,1,0,0,1,1.71-.7l2.58,2.58a1,1,0,0,1,0,1.42l-2.58,2.58A1,1,0,0,1,12,14.59ZM21,12a9,9,0,1,0-9,9A9,9,0,0,0,21,12Z" style="fill: none; stroke: #000000; stroke-linecap: round; stroke-linejoin: round; stroke-width:1.8;"/>
</g>
</svg>